<svg width="117" height="29" viewBox="0 0 117 29" fill="none" xmlns="http://www.w3.org/2000/svg">
<path d="M8.52992 23.51C7.24992 23.51 6.08992 23.3 5.04992 22.88C4.00992 22.44 3.11992 21.84 2.37992 21.08C1.63992 20.32 1.06992 19.43 0.669922 18.41C0.269922 17.37 0.069922 16.25 0.069922 15.05C0.069922 13.85 0.269922 12.74 0.669922 11.72C1.06992 10.68 1.63992 9.78 2.37992 9.02C3.11992 8.26 4.00992 7.67 5.04992 7.25C6.08992 6.81 7.24992 6.59 8.52992 6.59C9.78992 6.59 10.9399 6.81 11.9799 7.25C13.0199 7.67 13.8999 8.26 14.6199 9.02C15.3599 9.78 15.9299 10.68 16.3299 11.72C16.7299 12.74 16.9299 13.85 16.9299 15.05C16.9299 16.25 16.7299 17.37 16.3299 18.41C15.9299 19.43 15.3599 20.32 14.6199 21.08C13.8999 21.84 13.0199 22.44 11.9799 22.88C10.9399 23.3 9.78992 23.51 8.52992 23.51ZM8.49992 20.09C9.67992 20.09 10.5799 19.63 11.1999 18.71C11.8399 17.77 12.1599 16.55 12.1599 15.05C12.1599 13.53 11.8399 12.3 11.1999 11.36C10.5799 10.42 9.67992 9.95 8.49992 9.95C7.29992 9.95 6.38992 10.42 5.76992 11.36C5.14992 12.3 4.83992 13.53 4.83992 15.05C4.83992 16.55 5.14992 17.77 5.76992 18.71C6.38992 19.63 7.29992 20.09 8.49992 20.09ZM19.5663 7.04H24.0963V9.32H24.1863C25.2663 7.5 26.8863 6.59 29.0463 6.59C30.1063 6.59 31.0563 6.8 31.8963 7.22C32.7563 7.64 33.4763 8.23 34.0563 8.99C34.6563 9.73 35.1163 10.62 35.4363 11.66C35.7563 12.68 35.9163 13.8 35.9163 15.02C35.9163 16.32 35.7463 17.5 35.4063 18.56C35.0863 19.6 34.6163 20.49 33.9963 21.23C33.3963 21.95 32.6563 22.51 31.7763 22.91C30.9163 23.31 29.9563 23.51 28.8963 23.51C27.8363 23.51 26.8963 23.29 26.0763 22.85C25.2763 22.41 24.6463 21.8 24.1863 21.02H24.1263C24.1663 21.32 24.1963 21.76 24.2163 22.34C24.2563 22.92 24.2763 23.64 24.2763 24.5V28.31H19.5663V7.04ZM27.7863 19.85C28.8663 19.85 29.6963 19.43 30.2763 18.59C30.8563 17.75 31.1463 16.61 31.1463 15.17C31.1463 13.73 30.8663 12.57 30.3063 11.69C29.7463 10.79 28.8863 10.34 27.7263 10.34C27.1263 10.34 26.5963 10.47 26.1363 10.73C25.6963 10.97 25.3263 11.31 25.0263 11.75C24.7263 12.19 24.4963 12.7 24.3363 13.28C24.1963 13.86 24.1263 14.49 24.1263 15.17C24.1263 16.55 24.4363 17.68 25.0563 18.56C25.6763 19.42 26.5863 19.85 27.7863 19.85ZM37.324 7.04H39.724V1.94H44.344V7.04H47.464V10.04H44.344V17.96C44.344 18.56 44.494 18.97 44.794 19.19C45.114 19.39 45.554 19.49 46.114 19.49C46.274 19.49 46.454 19.49 46.654 19.49C46.854 19.47 47.034 19.45 47.194 19.43H47.434V22.94C47.174 22.98 46.814 23.03 46.354 23.09C45.894 23.15 45.344 23.18 44.704 23.18C43.964 23.18 43.284 23.12 42.664 23C42.064 22.86 41.544 22.63 41.104 22.31C40.664 21.97 40.324 21.54 40.084 21.02C39.844 20.48 39.724 19.8 39.724 18.98V10.04H37.324V7.04ZM50.1441 0.679999H54.9141V4.79H50.1441V0.679999ZM50.1741 7.04H54.8841V23H50.1741V7.04ZM58.2564 7.04H62.7864V9.53H62.8764C63.3964 8.57 64.0364 7.84 64.7964 7.34C65.5764 6.84 66.5364 6.59 67.6764 6.59C69.7764 6.59 71.2364 7.6 72.0564 9.62H72.1164C72.7764 8.54 73.5264 7.77 74.3664 7.31C75.2264 6.83 76.1664 6.59 77.1864 6.59C78.9664 6.59 80.3064 7.13 81.2064 8.21C82.1064 9.27 82.5564 10.69 82.5564 12.47V23H77.8764V13.25C77.8764 12.37 77.6664 11.69 77.2464 11.21C76.8464 10.71 76.2664 10.46 75.5064 10.46C74.6664 10.46 73.9964 10.78 73.4964 11.42C73.0164 12.06 72.7764 12.89 72.7764 13.91V23H68.0664V13.25C68.0664 12.37 67.8664 11.69 67.4664 11.21C67.0864 10.71 66.5064 10.46 65.7264 10.46C64.8864 10.46 64.2164 10.78 63.7164 11.42C63.2164 12.06 62.9664 12.89 62.9664 13.91V23H58.2564V7.04ZM96.0511 23C95.9311 22.82 95.8211 22.57 95.7211 22.25C95.6211 21.91 95.5511 21.51 95.5111 21.05H95.4511C94.9311 21.79 94.3011 22.37 93.5611 22.79C92.8411 23.21 91.8611 23.42 90.6211 23.42C89.8411 23.42 89.1111 23.31 88.4311 23.09C87.7711 22.89 87.1911 22.59 86.6911 22.19C86.2111 21.79 85.8311 21.29 85.5511 20.69C85.2911 20.07 85.1611 19.37 85.1611 18.59C85.1611 17.71 85.3211 16.98 85.6411 16.4C85.9811 15.82 86.4311 15.35 86.9911 14.99C87.5511 14.63 88.2111 14.36 88.9711 14.18C89.7311 13.98 90.5511 13.83 91.4311 13.73C92.8511 13.53 93.8711 13.29 94.4911 13.01C95.1311 12.73 95.4511 12.29 95.4511 11.69C95.4511 11.11 95.2611 10.65 94.8811 10.31C94.5011 9.95 93.9011 9.77 93.0811 9.77C92.1811 9.77 91.5011 9.96 91.0411 10.34C90.6011 10.72 90.3511 11.23 90.2911 11.87H85.9411C85.9611 11.19 86.1211 10.53 86.4211 9.89C86.7211 9.25 87.1611 8.69 87.7411 8.21C88.3211 7.71 89.0511 7.32 89.9311 7.04C90.8111 6.74 91.8411 6.59 93.0211 6.59C94.0411 6.59 94.9211 6.67 95.6611 6.83C96.4011 6.97 97.0511 7.21 97.6111 7.55C98.4511 8.03 99.0611 8.68 99.4411 9.5C99.8411 10.3 100.041 11.24 100.041 12.32V20.51C100.041 21.73 100.241 22.47 100.641 22.73V23H96.0511ZM92.0911 20.33C93.1511 20.33 93.9911 20.04 94.6111 19.46C95.2511 18.88 95.5711 18.15 95.5711 17.27V15.2C95.2311 15.42 94.8111 15.6 94.3111 15.74C93.8311 15.86 93.3311 15.98 92.8111 16.1C91.7711 16.32 91.0011 16.59 90.5011 16.91C90.0011 17.23 89.7511 17.74 89.7511 18.44C89.7511 19.14 89.9811 19.63 90.4411 19.91C90.9011 20.19 91.4511 20.33 92.0911 20.33ZM103.543 0.679999H108.283V23H103.543V0.679999Z" fill="#1D1C1C"/>
<path d="M111.443 18.08H116.423V23H111.443V18.08Z" fill="#0AA95D"/>
</svg>
